<svg width="34" height="26" viewBox="0 0 34 26" fill="none" xmlns="http://www.w3.org/2000/svg">
<path d="M33.0162 0.881694C32.3928 0.320616 31.5169 0 30.6015 0C28.7787 0 27.3031 1.24907 27.3031 2.79203C27.3031 3.03917 27.3426 3.28631 27.4215 3.52678L23.8469 5.6709C22.5686 4.57546 20.4775 4.5621 19.1834 5.64418C18.268 6.41232 17.9603 7.55452 18.4022 8.58316L15.1038 10.9343C14.0622 9.67192 12.0105 9.35798 10.5113 10.2397C9.94311 10.5736 9.517 11.0546 9.28816 11.6023L6.55001 10.6605C6.24227 9.13756 4.54572 8.11559 2.74659 8.37609C0.947463 8.63659 -0.259848 10.0727 0.0478982 11.5956C0.355644 13.1185 2.05219 14.1405 3.85132 13.88C5.03496 13.713 6.01343 13.0117 6.41587 12.0565L9.15402 12.9983C9.46176 14.5212 11.1583 15.5432 12.9574 15.2827C14.5435 15.0556 15.7035 13.8934 15.7035 12.5307C15.7035 12.4439 15.6956 12.3504 15.6877 12.2636L19.286 9.69195C20.6353 10.7273 22.7185 10.6471 23.9416 9.50493C24.7228 8.77686 24.9911 7.7549 24.6597 6.81977L28.1948 4.69569C29.4416 5.82452 31.5248 5.87796 32.8583 4.82928C34.1919 3.77392 34.255 2.01053 33.0162 0.881694ZM3.29896 12.5909C2.35205 12.5909 1.57874 11.9363 1.57874 11.1347C1.57874 10.3332 2.35205 9.6786 3.29896 9.6786C4.24587 9.6786 5.01918 10.3332 5.01918 11.1347C5.01918 11.9363 4.24587 12.5909 3.29896 12.5909ZM12.3972 13.9936C11.4503 13.9936 10.677 13.339 10.677 12.5374C10.677 11.7359 11.4503 11.0813 12.3972 11.0813C13.3441 11.0813 14.1174 11.7359 14.1174 12.5374C14.1174 13.339 13.352 13.9936 12.3972 13.9936ZM21.5033 9.0908C20.5564 9.0908 19.7831 8.43621 19.7831 7.63467C19.7831 6.83313 20.5564 6.17854 21.5033 6.17854C22.4502 6.17854 23.2235 6.83313 23.2235 7.63467C23.2235 8.43621 22.4502 9.0908 21.5033 9.0908ZM30.6015 4.24816C29.6546 4.24816 28.8813 3.59357 28.8813 2.79203C28.8813 1.99049 29.6546 1.3359 30.6015 1.3359C31.5484 1.3359 32.3218 1.99049 32.3218 2.79203C32.3218 3.60025 31.5563 4.24816 30.6015 4.24816Z" fill="black"/>
<path d="M32.811 7.80176H28.3921C27.9581 7.80176 27.603 8.10234 27.603 8.46971V24.367C27.603 24.7343 27.9581 25.0349 28.3921 25.0349H32.811C33.245 25.0349 33.6001 24.7343 33.6001 24.367V8.46971C33.6001 8.10234 33.245 7.80176 32.811 7.80176ZM32.0219 23.7658H29.1812V9.13766H32.0219V23.7658Z" fill="black"/>
<path d="M23.7365 12.6108H19.3177C18.8837 12.6108 18.5286 12.9114 18.5286 13.2788V24.367C18.5286 24.7343 18.8837 25.0349 19.3177 25.0349H23.7365C24.1705 25.0349 24.5256 24.7343 24.5256 24.367V13.2788C24.5256 12.9114 24.1705 12.6108 23.7365 12.6108ZM22.9475 23.7658H20.1067V13.9468H22.9475V23.7658Z" fill="black"/>
<path d="M14.583 17.6201H10.1641C9.73009 17.6201 9.375 17.9207 9.375 18.288V24.4327C9.375 24.8 9.73009 25.1006 10.1641 25.1006H14.583C15.017 25.1006 15.3721 24.8 15.3721 24.4327V18.288C15.3721 17.9207 15.017 17.6201 14.583 17.6201ZM13.7939 23.7648H10.9532V18.9559H13.7939V23.7648Z" fill="black"/>
<path d="M5.50838 16.2178H1.0894C0.65539 16.2178 0.300293 16.5184 0.300293 16.8857V24.4336C0.300293 24.801 0.65539 25.1016 1.0894 25.1016H5.50838C5.94239 25.1016 6.29749 24.801 6.29749 24.4336V16.8857C6.29749 16.5184 5.94239 16.2178 5.50838 16.2178ZM4.71928 23.7657H1.8785V17.5537H4.71928V23.7657Z" fill="black"/>
</svg>
