<svg width="30" height="26" viewBox="0 0 30 26" fill="none" xmlns="http://www.w3.org/2000/svg">
<path d="M17.5253 25.4028H7.03357C3.15526 25.4028 0 22.732 0 19.4491V5.95378C0 2.67087 3.15526 0 7.03357 0H17.7598C18.4072 0 18.9321 0.444272 18.9321 0.99232C18.9321 1.54037 18.4072 1.98464 17.7598 1.98464H7.03357C4.44801 1.98464 2.34452 3.7652 2.34452 5.95383V19.4491C2.34452 21.6377 4.44801 23.4183 7.03357 23.4183H17.5253C20.1109 23.4183 22.2144 21.6377 22.2144 19.4491V13.4953C22.2144 12.9472 22.7392 12.503 23.3867 12.503C24.0341 12.503 24.559 12.9472 24.559 13.4953V19.4491C24.5589 22.732 21.4037 25.4028 17.5253 25.4028ZM17.5207 11.7395L20.8419 11.1776C22.489 10.8989 23.9873 10.2202 25.1749 9.21485L28.7567 6.18293C30.425 4.7708 30.425 2.47297 28.7567 1.06084C27.0884 -0.351345 24.374 -0.351345 22.7057 1.06084L19.1239 4.09276C17.9362 5.09807 17.1345 6.36636 16.8052 7.76061L16.1413 10.572C16.0646 10.8973 16.1849 11.2336 16.462 11.4681C16.684 11.6561 16.9831 11.7588 17.2909 11.7588C17.3673 11.7587 17.4442 11.7524 17.5207 11.7395ZM27.0989 2.46417C27.4642 2.77341 27.6655 3.18456 27.6655 3.62189C27.6655 4.05921 27.4642 4.47041 27.0989 4.7796L23.5171 7.81152C22.6579 8.53881 21.574 9.02981 20.3824 9.23141L18.7851 9.50168L19.1044 8.14959C19.3425 7.1409 19.9225 6.22333 20.7818 5.49609L24.3636 2.46417C24.7289 2.15494 25.2146 1.98459 25.7312 1.98459C26.2479 1.98459 26.7336 2.15494 27.0989 2.46417ZM18.6976 17.4645H5.91991C5.27247 17.4645 4.74762 17.0202 4.74762 16.4721C4.74762 15.9241 5.27247 15.4798 5.91991 15.4798H18.6976C19.345 15.4798 19.8698 15.9241 19.8698 16.4721C19.8698 17.0202 19.3451 17.4645 18.6976 17.4645ZM12.3674 19.201C11.5581 19.201 10.902 19.7563 10.902 20.4413C10.902 21.1264 11.5581 21.6817 12.3674 21.6817C13.1766 21.6817 13.8327 21.1264 13.8327 20.4413C13.8327 19.7563 13.1766 19.201 12.3674 19.201Z" fill="black"/>
</svg>
