<svg width="42" height="34" viewBox="0 0 42 34" fill="none" xmlns="http://www.w3.org/2000/svg">
<path d="M11.2355 21.4028C11.6277 21.2114 11.7619 20.7866 11.5357 20.4548C11.3092 20.1233 10.8074 20.0094 10.4152 20.2008C10.0229 20.3925 9.88836 20.8172 10.1149 21.1488C10.3411 21.4806 10.8433 21.5944 11.2355 21.4028Z" fill="black"/>
<path d="M7.87378 26.1963L12.0049 32.2535C12.8963 33.562 14.9016 34.0464 16.4875 33.2704C18.0566 32.5028 18.5959 30.8056 17.6881 29.4762L15.2272 25.8676L17.3584 24.826C17.7506 24.634 17.8852 24.2095 17.6587 23.8775L16.5919 22.3135C16.7191 22.2926 17.5555 22.1537 32.3043 19.7047C34.1275 19.6208 35.2199 17.9329 34.299 16.5834L31.5727 12.5864L33.3149 10.3527C33.486 10.133 33.4963 9.85063 33.3409 9.62278L31.7002 7.21739C31.5448 6.98955 31.2497 6.8561 30.9405 6.87156L27.7845 7.03186L24.7579 2.59431C24.3196 1.95146 23.5342 1.56223 22.6575 1.55301C22.6469 1.55273 22.6367 1.55273 22.6261 1.55273C21.7788 1.55273 21.0098 1.90969 20.5541 2.51321L9.83806 14.0687L2.87143 17.4734C0.131366 18.812 -0.81777 21.7875 0.769678 24.1132C2.21998 26.2397 5.27759 27.0762 7.87378 26.1963ZM16.2676 30.1709C16.7207 30.8343 16.4525 31.6833 15.6665 32.0677C14.8779 32.4537 13.8736 32.2166 13.4257 31.5594L9.32408 25.5451L12.1657 24.1563C16.9127 31.117 16.1914 30.0594 16.2676 30.1709ZM14.4069 24.6646L13.5865 23.4619L15.0074 22.7675L15.8277 23.9702L14.4069 24.6646ZM30.5329 8.28338L31.6666 9.94556L30.6556 11.2416L28.7016 8.37642L30.5329 8.28338ZM21.9262 3.27459C22.1464 2.96971 22.4957 2.93825 22.6373 2.9415C22.7773 2.94286 23.1263 2.97975 23.3368 3.28842L32.8782 17.2778C33.189 17.7332 32.8112 18.3058 32.1879 18.3189C32.0761 18.321 32.0245 18.3381 31.738 18.3834L21.6452 3.58571C21.857 3.35515 21.8843 3.33291 21.9262 3.27459ZM20.5535 4.76291L30.0362 18.6661L15.7248 21.0422L11.3733 14.6622L20.5535 4.76291ZM2.1905 23.4188C1.83033 22.8912 1.63999 22.2923 1.63999 21.6864C1.63999 20.4479 2.42634 19.2945 3.69175 18.6761L10.0854 15.5514L14.187 21.5648L7.79335 24.6898C5.83451 25.6468 3.32132 25.0766 2.1905 23.4188Z" fill="black"/>
<path d="M8.69427 21.8432C8.46772 21.5114 7.96591 21.3975 7.5737 21.5892L6.15288 22.2831C5.7613 22.4745 5.25854 22.3604 5.03231 22.0291C4.80576 21.6973 4.30395 21.5835 3.91174 21.7751C3.51952 21.9668 3.38494 22.3913 3.61149 22.7231C4.28665 23.7126 5.79271 24.0615 6.9732 23.4851L8.39402 22.7912C8.78623 22.5995 8.92082 22.1753 8.69427 21.8432Z" fill="black"/>
<path d="M40.7812 3.038L36.2102 5.19C35.8144 5.37652 35.6718 5.79917 35.8923 6.13398C36.1121 6.46852 36.6114 6.5897 37.0081 6.40291L41.5788 4.25091C41.9748 4.06439 42.1171 3.64174 41.8966 3.30693C41.6765 2.97185 41.1769 2.85148 40.7812 3.038Z" fill="black"/>
<path d="M40.3016 10.2295L37.1322 9.51114C36.6944 9.41192 36.2446 9.6315 36.1273 10.0018C36.01 10.3721 36.2699 10.7525 36.7076 10.8517L39.8773 11.5701C40.3176 11.6701 40.7653 11.447 40.8819 11.0794C40.9992 10.7091 40.7393 10.3285 40.3016 10.2295Z" fill="black"/>
<path d="M32.3368 0.514544L31.4867 3.19635C31.3694 3.56669 31.6289 3.94705 32.0667 4.04655C32.5041 4.1455 32.954 3.92645 33.0716 3.55584L33.9213 0.874034C34.0386 0.5037 33.7791 0.123063 33.3414 0.023837C32.904 -0.0753888 32.4541 0.144209 32.3368 0.514544Z" fill="black"/>
</svg>
