<svg width="31" height="31" viewBox="0 0 31 31" fill="none" xmlns="http://www.w3.org/2000/svg">
<path d="M0.050436 5.44531C0.153248 5.19991 0.395332 5.04 0.663984 5.04H4.15326L3.77801 4.66897C3.51872 4.4126 3.51872 3.99678 3.77801 3.74035C4.03736 3.48398 4.45777 3.48398 4.71719 3.74035L5.09722 4.11611V0.656661C5.09722 0.391161 5.25908 0.151666 5.50714 0.0500104C5.75533 -0.0516453 6.04099 0.00456742 6.2308 0.192315L12.0849 5.98065C12.2095 6.10378 12.2795 6.27077 12.2795 6.44493V8.72266C14.195 7.48374 16.4032 6.83336 18.7266 6.83336C25.2443 6.83336 30.5469 12.0764 30.5469 18.5208C30.5469 24.9652 25.2443 30.2082 18.7266 30.2082C16.5633 30.2082 14.4469 29.6249 12.6062 28.5214C12.2926 28.3334 12.1925 27.9296 12.3826 27.6195C12.5727 27.3095 12.9811 27.2104 13.2947 27.3985C14.9278 28.3775 16.8061 28.895 18.7266 28.895C24.512 28.895 29.2188 24.2412 29.2188 18.5207C29.2188 12.8003 24.512 8.14648 18.7266 8.14648C16.3642 8.14648 14.1361 8.90357 12.2795 10.3359V11.2175L13.4896 12.414C14.9029 11.2273 16.7314 10.5102 18.7266 10.5102C23.1938 10.5102 26.8281 14.1036 26.8281 18.5207C26.8281 22.9377 23.1938 26.5312 18.7266 26.5312C14.2593 26.5312 10.625 22.9377 10.625 18.5207C10.625 16.548 11.3502 14.74 12.5505 13.3426L11.3356 12.1413H10.4521C9.02052 13.9554 8.23443 16.2121 8.23443 18.5207C8.23443 20.4564 8.77698 22.3444 9.80337 23.9806C9.9967 24.2887 9.90073 24.6935 9.58897 24.8847C9.47999 24.9515 9.35911 24.9834 9.23963 24.9834C9.0174 24.9834 8.80036 24.8731 8.67463 24.6728C7.51767 22.8286 6.90625 20.7013 6.90625 18.5207C6.90625 16.2527 7.58004 14.0289 8.82227 12.1413H6.51825C6.34212 12.1413 6.17329 12.0721 6.04869 11.949L0.194559 6.16065C0.00447655 5.97309 -0.052309 5.69065 0.050436 5.44531ZM11.953 18.5208C11.953 22.2137 14.9916 25.2181 18.7264 25.2181C22.4613 25.2181 25.4999 22.2137 25.4999 18.5208C25.4999 14.8279 22.4613 11.8235 18.7264 11.8235C17.0976 11.8235 15.6014 12.395 14.4317 13.3458L15.9441 14.8412C16.7203 14.2658 17.6838 13.9246 18.7264 13.9246C21.2895 13.9246 23.3748 15.9865 23.3748 18.5208C23.3748 21.0552 21.2895 23.117 18.7264 23.117C16.1632 23.117 14.0779 21.0551 14.0779 18.5208C14.0779 17.4899 14.423 16.5373 15.0049 15.7697L13.4925 14.2743C12.531 15.4309 11.953 16.9103 11.953 18.5208ZM19.196 18.9851C19.0663 19.1134 18.8964 19.1775 18.7264 19.1775C18.5565 19.1775 18.3866 19.1134 18.2569 18.9851L15.9576 16.7118C15.6095 17.2309 15.4061 17.8527 15.4061 18.5208C15.4061 20.331 16.8956 21.8038 18.7264 21.8038C20.5572 21.8038 22.0467 20.331 22.0467 18.5208C22.0467 16.7106 20.5572 15.2378 18.7264 15.2378C18.0507 15.2378 17.4218 15.439 16.8967 15.7831L19.196 18.0565C19.4553 18.3129 19.4553 18.7286 19.196 18.9851ZM10.9512 9.90437V6.71693L6.42527 2.24185V5.42929L10.9512 9.90437ZM6.79315 10.8283H10.0073L5.4813 6.35319H2.26719L6.79315 10.8283Z" fill="black"/>
</svg>
