<svg width="23" height="31" viewBox="0 0 23 31" fill="none" xmlns="http://www.w3.org/2000/svg">
<path d="M3.8701 31H19.6859C21.5162 31 23 29.7468 23 28.1947V3.3319C23 1.79799 21.5331 0.526611 19.6859 0.526611H3.8701C2.02635 0.526611 0.55603 1.79507 0.55603 3.3319V28.1947C0.55603 29.7472 2.04013 31 3.8701 31V31ZM2.66543 3.33183C2.66543 2.77468 3.19903 2.31211 3.8701 2.31211H19.6859C20.3558 2.31211 20.8906 2.77355 20.8906 3.33183V28.1947C20.8906 28.7579 20.3526 29.2144 19.6859 29.2144H3.8701C3.20627 29.2144 2.66543 28.7603 2.66543 28.1947V3.33183Z" fill="black"/>
<path d="M14.0373 25.3921H9.51851C8.93603 25.3921 8.46381 25.7916 8.46381 26.2844C8.46381 26.7772 8.93603 27.1768 9.51851 27.1768H14.0373C14.6198 27.1768 15.092 26.7772 15.092 26.2844C15.092 25.7916 14.6198 25.3921 14.0373 25.3921Z" fill="black"/>
<path d="M11.778 9.9624C13.6053 9.9624 15.092 8.70454 15.092 7.15845C15.092 5.61235 13.6053 4.35449 11.778 4.35449C9.95058 4.35449 8.46381 5.61235 8.46381 7.15845C8.46381 8.70454 9.95051 9.9624 11.778 9.9624ZM11.778 6.1392C12.4422 6.1392 12.9826 6.59644 12.9826 7.15845C12.9826 7.72045 12.4422 8.17769 11.778 8.17769C11.1137 8.17769 10.5732 7.72045 10.5732 7.15845C10.5732 6.59644 11.1136 6.1392 11.778 6.1392Z" fill="black"/>
<path d="M14.1124 12.8961C14.1124 13.3889 14.5847 13.7885 15.1671 13.7885H16.3718V14.8078C16.3718 15.3006 16.844 15.7002 17.4265 15.7002C18.009 15.7002 18.4812 15.3006 18.4812 14.8078V12.8961C18.4812 12.4032 18.009 12.0037 17.4265 12.0037H15.1671C14.5847 12.0037 14.1124 12.4032 14.1124 12.8961Z" fill="black"/>
<path d="M17.4265 19.6541C16.844 19.6541 16.3718 20.0536 16.3718 20.5465V21.5658H15.1671C14.5847 21.5658 14.1124 21.9653 14.1124 22.4582C14.1124 22.951 14.5847 23.3506 15.1671 23.3506H17.4265C18.009 23.3506 18.4812 22.951 18.4812 22.4582V20.5465C18.4812 20.0536 18.009 19.6541 17.4265 19.6541Z" fill="black"/>
<path d="M6.12953 15.7002C6.712 15.7002 7.18423 15.3006 7.18423 14.8078V13.7885H8.3889C8.97138 13.7885 9.4436 13.3889 9.4436 12.8961C9.4436 12.4032 8.97138 12.0037 8.3889 12.0037H6.12953C5.54705 12.0037 5.07483 12.4032 5.07483 12.8961V14.8078C5.07483 15.3006 5.54705 15.7002 6.12953 15.7002Z" fill="black"/>
<path d="M6.12953 23.3506H8.3889C8.97138 23.3506 9.4436 22.951 9.4436 22.4582C9.4436 21.9653 8.97138 21.5658 8.3889 21.5658H7.18423V20.5465C7.18423 20.0536 6.712 19.6541 6.12953 19.6541C5.54705 19.6541 5.07483 20.0536 5.07483 20.5465V22.4582C5.07483 22.951 5.54705 23.3506 6.12953 23.3506Z" fill="black"/>
</svg>
